<svg width="838" height="211" viewBox="0 0 838 211" fill="none" xmlns="http://www.w3.org/2000/svg">
  <path
    d="M44.85 199.15C40.1915 198.283 35.9217 195.978 32.64 192.56C30.9715 190.86 29.6619 188.842 28.7892 186.626C27.9165 184.41 27.4985 182.041 27.56 179.66V64.0899C24.3047 64.6464 20.9574 64.2145 17.95 62.8499C15.0666 61.6562 12.5217 59.7706 10.54 57.3599C8.70538 55.073 7.60709 52.2837 7.39003 49.3599C7.27151 47.8006 7.46515 46.2333 7.95967 44.7498C8.45418 43.2662 9.23961 41.8962 10.27 40.7199C12.6221 37.6279 15.5033 34.977 18.78 32.8899C22.0631 30.79 25.5592 29.0436 29.21 27.6799C32.9274 26.2882 36.7323 25.1424 40.6 24.2499C44.5267 23.3299 48.3233 22.5065 51.99 21.7799C62.1532 20.135 72.4774 19.7187 82.74 20.5399C92.7207 21.3027 102.528 23.5717 111.83 27.2699C121.028 30.953 129.537 36.1629 137 42.6799C144.807 49.5536 151.115 57.9616 155.53 67.3799C158.431 73.3534 160.552 79.6753 161.84 86.1899C163.115 92.6578 163.851 99.2203 164.04 105.81C164.253 114.244 163.243 122.665 161.04 130.81C156.679 146.852 147.708 161.264 135.24 172.26C128.937 177.797 121.888 182.422 114.3 186C107.421 189.141 100.189 191.445 92.76 192.86C85.16 194.32 77.7 195.6 70.38 196.7C66.72 197.247 62.8333 197.843 58.72 198.49C54.7716 199.13 50.7798 199.464 46.78 199.49L44.85 199.15ZM74.5 53.3799C72.12 53.3799 69.88 53.4799 67.78 53.6599C65.68 53.8399 63.43 54.1199 61.05 54.4799V164.56C61.9747 164.58 62.8983 164.486 63.8 164.28C64.5191 164.097 65.258 164.003 66 164C66.6511 164.013 67.2999 163.919 67.92 163.72C70.48 163.36 72.5867 163.087 74.24 162.9C75.88 162.72 77.44 162.49 78.9 162.21C80.36 161.93 81.9 161.62 83.43 161.21C84.96 160.8 86.77 160.39 88.79 159.84C99.4034 157.1 107.773 152.767 113.9 146.84C120.027 140.913 124.647 132.723 127.76 122.27C129.76 116.351 130.691 110.124 130.51 103.88C130.351 97.7855 129.192 91.7586 127.08 86.0399C124.968 80.3602 121.852 75.1066 117.88 70.5299C113.785 65.8133 108.733 62.0226 103.06 59.4099C98.5701 57.2923 93.808 55.8081 88.91 54.9999C84.25 54.2932 79.4467 53.7532 74.5 53.3799Z"
    fill="#FFADDE" />
  <path
    d="M72.48 20.1699C75.9 20.1699 79.32 20.3066 82.74 20.5799C92.7207 21.3427 102.528 23.6117 111.83 27.3099C121.025 30.9808 129.534 36.1771 137 42.6799C144.807 49.5536 151.115 57.9616 155.53 67.3799C158.431 73.3535 160.552 79.6753 161.84 86.1899C163.115 92.6578 163.851 99.2203 164.04 105.81C164.253 114.244 163.243 122.665 161.04 130.81C156.679 146.852 147.708 161.264 135.24 172.26C128.937 177.797 121.888 182.422 114.3 186C107.421 189.141 100.189 191.445 92.76 192.86C85.16 194.32 77.7 195.603 70.38 196.71C66.72 197.25 62.8333 197.843 58.72 198.49C54.7716 199.13 50.7798 199.464 46.78 199.49L44.85 199.22C40.1915 198.353 35.9217 196.048 32.64 192.63C30.9715 190.93 29.6619 188.912 28.7892 186.696C27.9165 184.48 27.4985 182.111 27.56 179.73V64.0899C24.3049 64.6527 20.9557 64.2205 17.95 62.8499C15.0666 61.6562 12.5217 59.7707 10.54 57.3599C8.7067 55.0714 7.60549 52.2835 7.38002 49.3599C7.26621 47.8002 7.46307 46.2334 7.95915 44.7503C8.45523 43.2672 9.24067 41.8973 10.27 40.7199C12.6221 37.6279 15.5033 34.977 18.78 32.8899C22.0631 30.79 25.5592 29.0436 29.21 27.6799C32.9274 26.2883 36.7323 25.1425 40.6 24.2499C44.5267 23.3299 48.3233 22.5066 51.99 21.7799C58.7651 20.6843 65.617 20.1326 72.48 20.1299V20.1699ZM61.05 164.56C61.9747 164.58 62.8983 164.486 63.8 164.28C64.5191 164.097 65.258 164.003 66 164C66.6511 164.013 67.2999 163.919 67.92 163.72C70.48 163.36 72.5867 163.087 74.24 162.9C75.88 162.72 77.44 162.49 78.9 162.21C80.36 161.93 81.9 161.62 83.43 161.21C84.96 160.8 86.77 160.39 88.79 159.84C99.4034 157.1 107.773 152.767 113.9 146.84C120.027 140.913 124.647 132.723 127.76 122.27C129.76 116.351 130.691 110.124 130.51 103.88C130.346 97.7861 129.188 91.7599 127.08 86.0399C124.968 80.3603 121.852 75.1067 117.88 70.5299C113.785 65.8134 108.733 62.0227 103.06 59.4099C98.5701 57.2923 93.808 55.8082 88.91 54.9999C84.2434 54.2732 79.44 53.7232 74.5 53.3499C72.12 53.3499 69.88 53.4499 67.78 53.6299C65.68 53.8099 63.43 54.0899 61.05 54.4499V164.56V164.56ZM72.48 13.1699C65.2451 13.1727 58.0221 13.7546 50.88 14.9099H50.75H50.62C46.9 15.6599 43 16.4999 39.02 17.4299C34.8553 18.3963 30.7569 19.6289 26.75 21.1199C22.6404 22.6679 18.7026 24.6384 15 26.9999C11.0554 29.5157 7.58278 32.704 4.74 36.4199C1.57965 40.208 0.0257059 45.0816 0.410016 49.9999C0.760547 54.2794 2.38737 58.3552 5.08 61.6999C7.76557 64.9897 11.2161 67.5716 15.13 69.2199C16.8687 69.9887 18.691 70.5525 20.56 70.8999V179.66C20.4926 182.944 21.0824 186.209 22.2948 189.263C23.5073 192.316 25.3178 195.096 27.62 197.44C31.905 201.877 37.466 204.869 43.53 206H43.7H43.87L45.79 206.27L46.28 206.34H46.78C51.1325 206.338 55.4784 206.004 59.78 205.34C63.56 204.75 67.36 204.16 71.41 203.56C78.78 202.45 86.41 201.14 94.07 199.67C102.051 198.145 109.82 195.667 117.21 192.29V192.29C125.359 188.427 132.929 183.446 139.7 177.49C153.191 165.591 162.898 149.998 167.62 132.64C169.999 123.843 171.101 114.75 170.89 105.64C170.69 98.6441 169.911 91.6769 168.56 84.8099C167.153 77.7072 164.841 70.8143 161.68 64.2999C156.843 54.0324 149.955 44.864 141.44 37.3599C133.393 30.3627 124.234 24.7589 114.34 20.7799C104.38 16.8301 93.8826 14.3996 83.2 13.5699C79.61 13.2899 75.97 13.1399 72.38 13.1399L72.48 13.1699ZM68.05 60.6599H68.39C70.22 60.4999 72.2 60.4199 74.24 60.4199C78.87 60.7699 83.44 61.2899 87.83 61.9799C92.0827 62.6879 96.218 63.9767 100.12 65.8099C104.882 68.0055 109.126 71.1854 112.57 75.1399C115.994 79.0901 118.683 83.6216 120.51 88.5199C122.35 93.526 123.364 98.7983 123.51 104.13C123.663 109.562 122.854 114.979 121.12 120.13V120.24V120.34C118.36 129.57 114.32 136.82 109.12 141.89C103.92 146.96 96.5 150.75 87.12 153.17C85.12 153.71 83.44 154.17 82 154.48C80.56 154.79 79.18 155.11 77.78 155.37C76.38 155.63 75.06 155.83 73.65 155.98C72.24 156.13 70.36 156.38 68.23 156.68V60.6799L68.05 60.6599Z"
    fill="black" />
  <path
    d="M164.45 123.11C165.753 117.74 167.548 112.501 169.81 107.46C172.109 102.303 174.913 97.3854 178.18 92.7799C181.435 88.1467 185.161 83.8638 189.3 79.9999C193.263 76.2639 197.746 73.1213 202.61 70.6699C210.423 66.4613 219.127 64.1748 228 63.9999C236.192 63.8217 244.316 65.5326 251.74 68.9999C259.148 72.5499 265.562 77.8784 270.41 84.5099C275.702 91.7757 279.185 100.199 280.57 109.08C281.448 114.942 281.952 120.854 282.08 126.78C282.141 132.639 281.541 138.486 280.29 144.21C278.219 153.384 274.451 162.09 269.18 169.88C263.832 178.143 257.06 185.392 249.18 191.29C241.632 196.953 232.907 200.846 223.65 202.68C214.41 204.513 205.123 203.05 195.79 198.29C191.745 196.382 187.922 194.034 184.39 191.29C180.923 188.552 177.833 185.368 175.2 181.82C172.185 177.977 169.734 173.725 167.92 169.19C166.161 164.73 164.74 160.143 163.67 155.47C162.384 150.42 161.908 145.199 162.26 140C162.606 134.891 163.248 129.805 164.18 124.77L164.45 123.11ZM197.39 128.87C196.84 131.8 196.39 134.68 196.02 137.52C195.65 140.391 195.65 143.298 196.02 146.17C196.509 150.178 197.668 154.076 199.45 157.7C201.02 160.969 203.377 163.797 206.31 165.93C209.162 167.952 212.564 169.055 216.06 169.09C219.72 169.183 223.653 168.04 227.86 165.66C233.193 162.547 237.77 157.74 241.59 151.24C245.332 145.029 247.762 138.117 248.73 130.93C249.666 124.184 248.91 117.311 246.53 110.93C244.15 104.617 239.483 100.087 232.53 97.3399C228.182 97.2975 223.875 98.1876 219.9 99.9499C216.178 101.616 212.79 103.943 209.9 106.82C206.963 109.78 204.467 113.148 202.49 116.82C200.385 120.653 198.676 124.69 197.39 128.87V128.87Z"
    fill="#ADBFFD" />
  <path
    d="M228.64 63.9999C236.624 63.9351 244.52 65.6715 251.74 69.0799C259.148 72.63 265.562 77.9584 270.41 84.5899C275.7 91.8567 279.183 100.279 280.57 109.16C281.448 115.022 281.953 120.934 282.08 126.86C282.141 132.719 281.541 138.566 280.29 144.29C278.219 153.464 274.451 162.17 269.18 169.96C263.832 178.223 257.06 185.472 249.18 191.37C241.632 197.033 232.907 200.926 223.65 202.76C221.111 203.265 218.529 203.52 215.94 203.52C208.908 203.438 201.999 201.672 195.79 198.37C191.745 196.462 187.922 194.114 184.39 191.37C180.923 188.632 177.833 185.448 175.2 181.9C172.185 178.057 169.734 173.805 167.92 169.27C166.161 164.81 164.74 160.223 163.67 155.55C162.376 150.475 161.9 145.225 162.26 140C162.606 134.891 163.248 129.805 164.18 124.77L164.45 123.12C165.753 117.75 167.548 112.511 169.81 107.47C172.109 102.313 174.913 97.3954 178.18 92.7899C181.434 88.1533 185.161 83.8669 189.3 79.9999C193.263 76.2639 197.746 73.1213 202.61 70.6699C210.423 66.4613 219.127 64.1748 228 63.9999H228.64ZM216.48 169.09C220.506 168.95 224.427 167.768 227.86 165.66C233.193 162.547 237.77 157.74 241.59 151.24C245.332 145.029 247.762 138.117 248.73 130.93C249.666 124.184 248.91 117.311 246.53 110.93C244.15 104.617 239.483 100.087 232.53 97.3399C228.182 97.2976 223.875 98.1876 219.9 99.95C216.178 101.616 212.79 103.944 209.9 106.82C206.963 109.78 204.467 113.148 202.49 116.82C200.39 120.663 198.688 124.711 197.41 128.9C196.86 131.83 196.41 134.71 196.04 137.55C195.67 140.421 195.67 143.328 196.04 146.2C196.529 150.208 197.688 154.106 199.47 157.73C201.04 160.999 203.397 163.827 206.33 165.96C209.182 167.982 212.584 169.085 216.08 169.12H216.5L216.48 169.09ZM228.64 56.9999H227.93C217.968 57.2092 208.198 59.776 199.42 64.4899C193.981 67.2457 188.964 70.7646 184.52 74.9399C180.037 79.1322 175.996 83.7731 172.46 88.7899C168.955 93.777 165.941 99.0919 163.46 104.66C161.028 110.092 159.1 115.736 157.7 121.52L157.64 121.76V122.01L157.37 123.59C156.404 128.882 155.736 134.223 155.37 139.59C154.962 145.515 155.485 151.467 156.92 157.23C158.076 162.223 159.6 167.123 161.48 171.89C163.528 177.017 166.292 181.828 169.69 186.18C172.651 190.164 176.117 193.748 180 196.84C183.913 199.871 188.141 202.473 192.61 204.6C199.785 208.373 207.754 210.385 215.86 210.47C218.905 210.467 221.943 210.169 224.93 209.58C235.205 207.55 244.897 203.252 253.3 197C261.85 190.593 269.197 182.721 275 173.75C280.74 165.231 284.847 155.72 287.11 145.7C288.464 139.459 289.114 133.086 289.05 126.7C288.922 120.469 288.391 114.252 287.46 108.09V107.91C285.877 97.9451 281.949 88.499 276 80.3499C270.467 72.8121 263.161 66.7536 254.73 62.7099C246.568 58.8843 237.654 56.9333 228.64 56.9999V56.9999ZM204.2 130.6C205.32 126.998 206.797 123.518 208.61 120.21C210.271 117.115 212.366 114.273 214.83 111.77C217.147 109.492 219.857 107.652 222.83 106.34C225.475 105.137 228.327 104.458 231.23 104.34C233.238 105.15 235.057 106.368 236.57 107.917C238.083 109.466 239.258 111.313 240.02 113.34C242.006 118.658 242.625 124.39 241.82 130.01C240.97 136.255 238.854 142.262 235.6 147.66C232.4 153.07 228.6 157.08 224.41 159.57C222.033 161.055 219.319 161.915 216.52 162.07H216.28C214.18 162.062 212.132 161.413 210.41 160.21C208.411 158.742 206.812 156.796 205.76 154.55C204.323 151.624 203.39 148.476 203 145.24C202.71 142.969 202.71 140.671 203 138.4C203.33 135.84 203.75 133.19 204.24 130.53L204.2 130.6Z"
    fill="black" />
  <path
    d="M285.7 123.11C287 117.74 288.791 112.502 291.05 107.46C293.357 102.307 296.16 97.3901 299.42 92.7799C302.678 88.149 306.404 83.8664 310.54 79.9999C314.505 76.2661 318.988 73.1237 323.85 70.6699C331.664 66.4634 340.367 64.1771 349.24 63.9999C357.439 63.82 365.569 65.5309 373 68.9999C380.406 72.5524 386.82 77.8804 391.67 84.5099C396.959 91.7764 400.438 100.199 401.82 109.08C402.708 114.941 403.212 120.853 403.33 126.78C403.395 132.638 402.798 138.485 401.55 144.21C399.475 153.385 395.704 162.091 390.43 169.88C385.087 178.148 378.315 185.397 370.43 191.29C362.882 196.953 354.157 200.846 344.9 202.68C335.633 204.533 326.333 203.08 317 198.32C312.958 196.411 309.139 194.064 305.61 191.32C302.14 188.582 299.046 185.398 296.41 181.85C293.402 178.005 290.954 173.752 289.14 169.22C287.378 164.76 285.954 160.174 284.88 155.5C283.601 150.439 283.135 145.207 283.5 140C283.851 134.891 284.492 129.806 285.42 124.77L285.7 123.11ZM318.64 128.87C318.093 131.797 317.633 134.68 317.26 137.52C316.9 140.392 316.9 143.298 317.26 146.17C317.752 150.179 318.915 154.077 320.7 157.7C322.264 160.973 324.622 163.802 327.56 165.93C330.408 167.953 333.807 169.056 337.3 169.09C340.96 169.183 344.897 168.04 349.11 165.66C354.41 162.547 358.983 157.74 362.83 151.24C366.587 145.033 369.028 138.12 370 130.93C370.936 124.184 370.18 117.311 367.8 110.93C365.42 104.617 360.753 100.087 353.8 97.3399C349.455 97.2977 345.152 98.1877 341.18 99.9499C337.455 101.611 334.066 103.939 331.18 106.82C328.243 109.78 325.747 113.148 323.77 116.82C321.651 120.65 319.932 124.688 318.64 128.87V128.87Z"
    fill="#92EBEB" />
  <path
    d="M349.89 63.9998C357.871 63.9108 365.77 65.6197 373 68.9998C380.406 72.5523 386.82 77.8803 391.67 84.5098C396.957 91.7773 400.436 100.2 401.82 109.08C402.708 114.941 403.212 120.853 403.33 126.78C403.395 132.638 402.798 138.485 401.55 144.21C399.475 153.385 395.704 162.091 390.43 169.88C385.088 178.147 378.315 185.397 370.43 191.29C362.882 196.953 354.157 200.846 344.9 202.68C342.361 203.186 339.779 203.441 337.19 203.44C330.147 203.374 323.223 201.618 317 198.32C312.958 196.411 309.139 194.063 305.61 191.32C302.14 188.582 299.046 185.398 296.41 181.85C293.402 178.005 290.954 173.752 289.14 169.22C287.378 164.76 285.954 160.174 284.88 155.5C283.601 150.439 283.135 145.207 283.5 140C283.851 134.891 284.492 129.806 285.42 124.77L285.7 123.12C287 117.75 288.791 112.511 291.05 107.47C293.357 102.316 296.16 97.3999 299.42 92.7898C302.677 88.1554 306.403 83.8694 310.54 79.9998C314.505 76.266 318.988 73.1236 323.85 70.6698C331.664 66.4633 340.367 64.177 349.24 63.9998H349.89ZM337.72 169.09C341.749 168.95 345.674 167.769 349.11 165.66C354.41 162.546 358.983 157.74 362.83 151.24C366.587 145.033 369.028 138.12 370 130.93C370.936 124.184 370.18 117.311 367.8 110.93C365.42 104.616 360.753 100.086 353.8 97.3398C349.455 97.2976 345.152 98.1876 341.18 99.9498C337.455 101.611 334.066 103.939 331.18 106.82C328.243 109.78 325.747 113.148 323.77 116.82C321.666 120.661 319.964 124.709 318.69 128.9C318.143 131.826 317.683 134.71 317.31 137.55C316.95 140.422 316.95 143.328 317.31 146.2C317.802 150.209 318.965 154.107 320.75 157.73C322.314 161.003 324.672 163.832 327.61 165.96C330.458 167.983 333.857 169.086 337.35 169.12H337.77L337.72 169.09ZM349.89 56.9998H349.17C339.211 57.2084 329.444 59.7752 320.67 64.4898C315.227 67.2448 310.207 70.7637 305.76 74.9398C301.28 79.1347 297.239 83.7753 293.7 88.7898C290.193 93.7755 287.178 99.0905 284.7 104.66C282.261 110.09 280.329 115.734 278.93 121.52L278.87 121.76V122.01L278.61 123.59C277.639 128.881 276.971 134.223 276.61 139.59C276.192 145.515 276.715 151.469 278.16 157.23C279.308 162.223 280.829 167.124 282.71 171.89C284.762 177.015 287.526 181.826 290.92 186.18C293.921 190.203 297.434 193.816 301.37 196.93C305.283 199.961 309.511 202.562 313.98 204.69C321.155 208.462 329.124 210.474 337.23 210.56C340.275 210.557 343.313 210.259 346.3 209.67C356.541 207.596 366.191 203.268 374.55 197C383.101 190.608 390.455 182.753 396.27 173.8C402.015 165.284 406.121 155.771 408.38 145.75C409.738 139.509 410.389 133.136 410.32 126.75C410.19 120.519 409.663 114.303 408.74 108.14V108.05V107.96C407.159 97.9979 403.239 88.5528 397.3 80.3998C391.762 72.8421 384.446 66.7662 376 62.7098C367.84 58.8642 358.921 56.8959 349.9 56.9498L349.89 56.9998ZM325.45 130.6C326.571 127 328.045 123.52 329.85 120.21C331.518 117.117 333.616 114.275 336.08 111.77C338.397 109.492 341.107 107.652 344.08 106.34C346.721 105.137 349.57 104.458 352.47 104.34C354.478 105.15 356.297 106.368 357.81 107.917C359.323 109.466 360.498 111.313 361.26 113.34C363.229 118.659 363.827 124.388 363 130C362.146 136.244 360.029 142.249 356.78 147.65C353.58 153.06 349.78 157.07 345.58 159.56C343.203 161.046 340.489 161.906 337.69 162.06H337.45C335.353 162.051 333.308 161.403 331.59 160.2C329.59 158.73 327.988 156.785 326.93 154.54C325.497 151.613 324.567 148.466 324.18 145.23C323.89 142.959 323.89 140.661 324.18 138.39C324.51 135.83 324.92 133.18 325.42 130.52L325.45 130.6Z"
    fill="black" />
  <path
    d="M533.76 166.75C536.867 172.083 537.92 176.843 536.92 181.03C536.158 184.866 533.944 188.258 530.74 190.5C527.365 192.671 523.324 193.558 519.35 193C514.857 192.54 510.523 190.207 506.35 186C502.12 189.022 497.506 191.467 492.63 193.27C487.686 195.063 482.645 196.575 477.53 197.8C469.702 199.636 461.54 199.495 453.78 197.39C446.391 195.408 439.504 191.89 433.568 187.065C427.631 182.241 422.78 176.218 419.33 169.39C415.669 162.284 413.62 154.458 413.33 146.47C412.757 137.633 413.451 128.76 415.39 120.12C417.197 111.989 420.304 104.202 424.59 97.0599C428.855 90.0451 434.507 83.9745 441.2 79.2199C448.485 74.0947 456.757 70.5426 465.49 68.7899C470.925 67.6882 476.455 67.1255 482 67.1099C487.562 67.1102 493.114 67.5685 498.6 68.4799C498.42 64.4799 498.28 59.8299 498.19 54.6199C498.1 49.4099 498.06 44.33 498.06 39.38C498.06 34.43 498.24 30.01 498.6 26.07C498.784 23.24 499.253 20.4358 500 17.6999C501.109 14.6172 503.177 11.971 505.9 10.1499C508.378 8.46806 511.278 7.51527 514.27 7.39994C517.299 7.33843 520.288 8.09871 522.92 9.59995C525.807 11.2119 528.147 13.6494 529.64 16.6C530.008 17.5157 530.47 18.3905 531.02 19.21C531.547 19.9789 531.833 20.8877 531.84 21.82C532.02 45.82 532.067 69.5166 531.98 92.91C531.893 116.303 531.847 140.003 531.84 164.01C532.57 165.11 533.21 166 533.76 166.75ZM495.6 151.66C496.152 150.96 496.857 150.396 497.66 150.01C498.097 149.827 498.471 149.523 498.739 149.132C499.007 148.742 499.157 148.283 499.17 147.81V125.17C499.17 117.757 499.08 110.207 498.9 102.52C494.376 101.594 489.784 101.042 485.17 100.87C480.508 100.68 475.843 101.145 471.31 102.25C466.908 103.318 462.736 105.179 459 107.74C455.071 110.516 451.984 114.322 450.08 118.74C448.98 122.207 447.98 125.683 447.08 129.17C446.186 132.484 445.679 135.89 445.57 139.32C445.474 142.614 445.889 145.903 446.8 149.07C447.778 152.395 449.361 155.51 451.47 158.26C452.278 159.064 453.151 159.8 454.08 160.46C455.08 161.19 457.08 162.46 459.98 164.3C466.493 164.876 473.057 164.224 479.33 162.38C485.65 160.401 491.288 156.686 495.6 151.66V151.66Z"
    fill="#95F1C5" />
  <path
    d="M514.75 7.3999C517.616 7.42687 520.428 8.18406 522.92 9.59991C525.807 11.2119 528.147 13.6494 529.64 16.5999C530.008 17.5157 530.47 18.3904 531.02 19.2099C531.547 19.9788 531.833 20.8877 531.84 21.8199C532.02 45.8199 532.067 69.5166 531.98 92.9099C531.893 116.303 531.847 140.003 531.84 164.01C532.57 165.11 533.21 166.01 533.76 166.75C536.867 172.083 537.92 176.843 536.92 181.03C536.158 184.865 533.944 188.258 530.74 190.5C528.051 192.267 524.887 193.17 521.67 193.09C520.92 193.09 520.15 193.09 519.35 192.97C514.857 192.51 510.523 190.177 506.35 185.97C502.12 188.992 497.506 191.437 492.63 193.24C487.686 195.033 482.645 196.545 477.53 197.77C473.825 198.608 470.039 199.037 466.24 199.05C462.029 199.056 457.837 198.487 453.78 197.36C446.391 195.378 439.504 191.86 433.568 187.035C427.631 182.211 422.78 176.188 419.33 169.36C415.669 162.254 413.62 154.428 413.33 146.44C412.757 137.603 413.451 128.73 415.39 120.09C417.197 111.959 420.304 104.172 424.59 97.0299C428.855 90.015 434.507 83.9445 441.2 79.1899C448.485 74.0646 456.757 70.5126 465.49 68.7599C470.926 67.6683 476.456 67.1156 482 67.1099C487.562 67.1102 493.114 67.5684 498.6 68.4799C498.42 64.4799 498.28 59.8299 498.19 54.6199C498.1 49.4099 498.06 44.3299 498.06 39.3799C498.06 34.4299 498.24 30.0099 498.6 26.0699C498.784 23.2399 499.253 20.4357 500 17.6999C501.109 14.6171 503.177 11.971 505.9 10.1499C508.377 8.46766 511.278 7.51799 514.27 7.40991H514.75V7.3999ZM464.56 164.47C469.54 164.487 474.496 163.776 479.27 162.36C485.61 160.396 491.269 156.688 495.6 151.66C496.152 150.96 496.857 150.396 497.66 150.01C498.097 149.827 498.471 149.523 498.739 149.132C499.007 148.742 499.157 148.283 499.17 147.81V125.17C499.17 117.757 499.08 110.207 498.9 102.52C494.376 101.594 489.784 101.042 485.17 100.87C484.5 100.87 483.83 100.87 483.17 100.87C479.177 100.861 475.198 101.338 471.32 102.29C466.917 103.345 462.742 105.192 459 107.74C455.071 110.516 451.984 114.322 450.08 118.74C448.98 122.207 447.98 125.683 447.08 129.17C446.186 132.484 445.679 135.89 445.57 139.32C445.474 142.614 445.889 145.903 446.8 149.07C447.778 152.395 449.361 155.51 451.47 158.26C452.278 159.064 453.151 159.8 454.08 160.46C455.08 161.19 457.08 162.46 459.98 164.3C461.54 164.43 463.09 164.49 464.62 164.49L464.56 164.47ZM514.75 0.399902H514.05C509.767 0.549884 505.61 1.89375 502.05 4.27991C498.105 6.90347 495.097 10.7138 493.46 15.1599L493.4 15.3099V15.4699C492.475 18.7123 491.902 22.0448 491.69 25.4099C491.31 29.5199 491.12 34.2099 491.12 39.4099C491.12 44.6099 491.12 49.6999 491.25 54.7799C491.25 56.7799 491.33 58.6999 491.38 60.5399C488.28 60.2699 485.16 60.1399 482.06 60.1399C476.016 60.1405 469.987 60.7368 464.06 61.9199H463.95C454.28 63.8911 445.121 67.8404 437.05 73.5199C429.592 78.8271 423.294 85.5982 418.54 93.4199C413.882 101.203 410.505 109.685 408.54 118.54C406.459 127.813 405.708 137.335 406.31 146.82C406.67 155.809 408.998 164.609 413.13 172.6C417.023 180.281 422.488 187.057 429.171 192.487C435.854 197.917 443.605 201.881 451.92 204.12C456.588 205.405 461.408 206.057 466.25 206.06C470.556 206.044 474.848 205.561 479.05 204.62H479.12H479.18C484.539 203.316 489.82 201.714 495 199.82C498.734 198.452 502.329 196.734 505.74 194.69C509.492 197.575 513.958 199.387 518.66 199.93C519.657 200.036 520.658 200.089 521.66 200.09C526.278 200.175 530.812 198.853 534.66 196.3C539.326 193.09 542.575 188.205 543.73 182.66C545.16 176.66 543.84 170.11 539.8 163.22L539.6 162.87L539.35 162.54C539.19 162.33 539.02 162.1 538.84 161.84C538.84 138.05 538.84 114.84 538.98 92.9399C539.07 69.7199 538.98 45.7799 538.84 21.7899C538.823 19.4867 538.128 17.2397 536.84 15.3299C536.564 14.9194 536.332 14.4802 536.15 14.0199L536.01 13.6599L535.83 13.3199C533.697 9.16331 530.376 5.73473 526.29 3.46991C522.766 1.48538 518.795 0.428987 514.75 0.399902V0.399902ZM456.57 121.27C457.951 118.163 460.14 115.483 462.91 113.51C465.977 111.428 469.396 109.917 473 109.05C476.335 108.234 479.757 107.824 483.19 107.83C483.77 107.83 484.36 107.83 484.94 107.83C487.35 107.92 489.73 108.12 492.05 108.42C492.15 114.13 492.2 119.73 492.2 125.13V145.21C491.45 145.788 490.778 146.46 490.2 147.21C486.769 151.165 482.301 154.081 477.3 155.63C473.174 156.851 468.893 157.464 464.59 157.45C463.79 157.45 462.98 157.45 462.17 157.39C459.77 155.88 458.68 155.13 458.17 154.77C457.663 154.41 457.179 154.019 456.72 153.6C455.28 151.637 454.188 149.442 453.49 147.11C452.765 144.633 452.428 142.06 452.49 139.48C452.582 136.583 453.011 133.707 453.77 130.91C454.61 127.72 455.54 124.47 456.55 121.25L456.57 121.27Z"
    fill="black" />
  <path
    d="M589.13 171.7C591.253 173.686 592.975 176.063 594.2 178.7C595.529 181.348 596.279 184.249 596.4 187.21C596.509 190.002 595.844 192.771 594.48 195.21C593.107 197.677 590.68 199.55 587.2 200.83C584.275 201.76 581.166 201.949 578.15 201.38C574.749 200.794 571.46 199.684 568.4 198.09C565.31 196.516 562.448 194.531 559.89 192.19C557.567 190.102 555.74 187.523 554.54 184.64C554.146 183.621 553.868 182.561 553.71 181.48C553.542 180.435 553.452 179.378 553.44 178.32V25.9298C553.419 23.9053 553.837 21.9003 554.666 20.053C555.494 18.2058 556.714 16.5602 558.24 15.2298C561.143 12.4427 564.833 10.6167 568.81 9.99984C570.814 9.84456 572.827 10.1278 574.71 10.8298C576.831 11.5683 578.824 12.6309 580.62 13.9798C582.395 15.3107 583.928 16.9379 585.15 18.7898C586.295 20.494 586.914 22.4969 586.93 24.5498V43.4998C586.93 51.3732 586.977 59.9765 587.07 69.3098C587.163 78.6432 587.207 88.3098 587.2 98.3098C587.2 108.31 587.157 117.87 587.07 126.99C586.983 136.11 586.937 144.483 586.93 152.11C586.93 159.703 586.84 165.786 586.66 170.36L589.13 171.7Z"
    fill="#FFE375" />
  <path
    d="M569.92 9.99997C571.555 10.0204 573.175 10.3179 574.71 10.88C576.831 11.6184 578.824 12.681 580.62 14.03C582.395 15.3608 583.928 16.988 585.15 18.84C586.295 20.5442 586.914 22.5471 586.93 24.6V43.5C586.93 51.3733 586.977 59.9766 587.07 69.31C587.163 78.6433 587.207 88.31 587.2 98.31C587.2 108.31 587.157 117.87 587.07 126.99C586.983 136.11 586.937 144.483 586.93 152.11C586.93 159.703 586.84 165.787 586.66 170.36L589.13 171.74C591.255 173.725 592.976 176.102 594.2 178.74C595.53 181.384 596.28 184.282 596.4 187.24C596.509 190.033 595.844 192.801 594.48 195.24C593.107 197.707 590.68 199.58 587.2 200.86C585.435 201.44 583.588 201.73 581.73 201.72C580.53 201.718 579.332 201.614 578.15 201.41C574.749 200.824 571.46 199.715 568.4 198.12C565.31 196.546 562.448 194.561 559.89 192.22C557.567 190.132 555.74 187.553 554.54 184.67C554.146 183.651 553.868 182.591 553.71 181.51C553.542 180.465 553.452 179.409 553.44 178.35V25.93C553.419 23.9054 553.837 21.9004 554.666 20.0531C555.494 18.2059 556.714 16.5603 558.24 15.23C561.143 12.4429 564.833 10.6169 568.81 9.99997C569.17 9.99997 569.54 9.99997 569.92 9.99997ZM569.92 2.99997C569.322 2.99952 568.725 3.02955 568.13 3.08997H568H567.85C562.48 3.90796 557.49 6.35083 553.55 10.09C551.309 12.0792 549.518 14.5239 548.297 17.2607C547.076 19.9974 546.453 22.9633 546.47 25.96V178.28C546.481 179.697 546.601 181.111 546.83 182.51C547.061 184.123 547.48 185.704 548.08 187.22C549.665 191.057 552.083 194.493 555.16 197.28C558.184 200.059 561.571 202.414 565.23 204.28C568.929 206.216 572.906 207.566 577.02 208.28C578.587 208.539 580.172 208.673 581.76 208.68C584.372 208.69 586.969 208.278 589.45 207.46H589.55H589.66C594.74 205.59 598.43 202.63 600.66 198.67C602.631 195.107 603.579 191.068 603.4 187C603.241 183.063 602.257 179.202 600.51 175.67C598.89 172.229 596.626 169.13 593.84 166.54H593.78C593.88 162.54 593.93 157.68 593.93 152.14C593.93 144.33 593.98 135.9 594.07 127.09C594.16 117.81 594.2 108.09 594.2 98.34C594.2 88.59 594.2 78.78 594.07 69.34C593.98 60.34 593.93 51.69 593.93 43.6V24.56C593.911 21.1551 592.892 17.8308 591 15C589.336 12.4561 587.238 10.2254 584.8 8.40997C582.43 6.62651 579.799 5.21991 577 4.23997C574.722 3.42041 572.321 2.99105 569.9 2.96997L569.92 2.99997Z"
    fill="black" />
  <path
    d="M699.12 151.93C702.926 150.833 706.958 150.785 710.79 151.79C713.87 152.609 716.609 154.389 718.61 156.87C720.482 159.398 721.361 162.526 721.08 165.66C720.9 169.126 719.347 172.793 716.42 176.66C713.749 180.018 710.372 182.749 706.53 184.66C702.725 186.674 698.782 188.415 694.73 189.87C686.463 192.979 677.912 195.277 669.2 196.73C661.704 198.011 654.046 198.011 646.55 196.73C639.488 195.432 632.765 192.71 626.79 188.73C620.087 184.15 614.273 178.389 609.63 171.73C605.905 166.653 603.161 160.925 601.54 154.84C599.792 148.532 598.821 142.033 598.65 135.49C598.466 128.952 599.019 122.414 600.3 116C601.438 110.039 603.281 104.235 605.79 98.7098C608.897 92.2964 613.837 86.4398 620.61 81.1398C627.428 75.8099 635.018 71.5509 643.12 68.5098C651.213 65.4316 659.734 63.6268 668.38 63.1598C676.98 62.6998 684.573 64.0331 691.16 67.1598C696.664 69.7333 701.502 73.538 705.3 78.2798C709.101 82.8751 711.864 88.2374 713.4 93.9998C714.86 99.6114 715 105.485 713.81 111.16C712.479 117.21 709.373 122.725 704.89 127C700.462 131.466 695.368 135.217 689.79 138.12C684.294 140.963 678.614 143.439 672.79 145.53C666.895 147.648 660.885 149.434 654.79 150.88C648.663 152.353 642.76 154 637.08 155.82C640.478 159.935 645.092 162.868 650.26 164.2C655.342 165.398 660.603 165.629 665.77 164.88C671.388 164.088 676.877 162.565 682.1 160.35C687.382 158.17 692.516 155.648 697.47 152.8L699.12 151.93ZM643.67 104.72C639.796 106.774 636.566 109.861 634.34 113.64C632.34 117.213 630.877 122.213 629.95 128.64C634.703 127.18 640.057 125.623 646.01 123.97C651.963 122.316 657.59 120.58 662.89 118.76C667.565 117.221 672.072 115.211 676.34 112.76C680 110.56 681.83 108.18 681.83 105.62C681.833 104.175 681.6 102.739 681.14 101.37C680.919 100.696 680.544 100.084 680.044 99.5822C679.544 99.0803 678.933 98.7027 678.26 98.4798C673.155 96.6596 667.647 96.279 662.34 97.3798C657.557 98.2212 652.929 99.7787 648.61 102L643.67 104.72Z"
    fill="#FFC48C" />
  <path
    d="M671.62 63C678.355 62.8867 685.03 64.2771 691.16 67.07C696.664 69.6435 701.502 73.4482 705.3 78.19C709.112 82.8117 711.876 88.2059 713.4 94C714.86 99.6116 715 105.485 713.81 111.16C712.479 117.21 709.373 122.725 704.89 127C700.462 131.466 695.368 135.217 689.79 138.12C684.293 140.963 678.614 143.439 672.79 145.53C666.895 147.648 660.885 149.434 654.79 150.88C648.663 152.353 642.76 154 637.08 155.82C640.478 159.935 645.092 162.869 650.26 164.2C653.349 164.935 656.514 165.304 659.69 165.3C661.724 165.297 663.755 165.157 665.77 164.88C671.388 164.089 676.878 162.566 682.1 160.35C687.382 158.17 692.516 155.648 697.47 152.8L699.12 151.98C701.23 151.432 703.4 151.143 705.58 151.12C707.342 151.107 709.097 151.35 710.79 151.84C713.87 152.659 716.609 154.439 718.61 156.92C720.482 159.448 721.361 162.576 721.08 165.71C720.9 169.177 719.347 172.843 716.42 176.71C713.748 180.068 710.372 182.799 706.53 184.71C702.725 186.724 698.782 188.465 694.73 189.92C686.461 193.028 677.912 195.328 669.2 196.79C665.33 197.409 661.419 197.726 657.5 197.74C653.812 197.75 650.131 197.432 646.5 196.79C639.44 195.488 632.717 192.766 626.74 188.79C620.037 184.21 614.223 178.449 609.58 171.79C605.855 166.713 603.111 160.985 601.49 154.9C599.742 148.592 598.771 142.094 598.6 135.55C598.428 128.99 598.998 122.432 600.3 116C601.438 110.039 603.281 104.235 605.79 98.71C608.897 92.2967 613.837 86.44 620.61 81.14C627.428 75.8101 635.018 71.5511 643.12 68.51C651.213 65.4318 659.734 63.627 668.38 63.16C669.48 63.1 670.56 63.07 671.62 63.07V63ZM630 128.6C634.753 127.14 640.107 125.583 646.06 123.93C652.013 122.277 657.64 120.54 662.94 118.72C667.615 117.181 672.122 115.171 676.39 112.72C680.05 110.52 681.88 108.14 681.88 105.58C681.882 104.132 681.649 102.693 681.19 101.32C680.967 100.649 680.591 100.039 680.091 99.5389C679.591 99.0389 678.981 98.6626 678.31 98.44C675.156 97.3091 671.831 96.7306 668.48 96.73C666.435 96.7328 664.395 96.9371 662.39 97.34C657.588 98.1892 652.942 99.7603 648.61 102L643.67 104.75C639.796 106.804 636.566 109.892 634.34 113.67C632.34 117.243 630.877 122.243 629.95 128.67L630 128.6ZM671.62 56C670.44 56 669.22 56 668.01 56.1C658.646 56.6071 649.417 58.5602 640.65 61.89C631.887 65.2021 623.676 69.8247 616.3 75.6C608.71 81.6 603.06 88.28 599.49 95.6V95.65V95.71C596.754 101.742 594.741 108.076 593.49 114.58C592.106 121.511 591.509 128.575 591.71 135.64C591.898 142.741 592.949 149.793 594.84 156.64C596.691 163.542 599.811 170.039 604.04 175.8C609.191 183.142 615.628 189.491 623.04 194.54C629.807 199.017 637.409 202.078 645.39 203.54C649.417 204.26 653.5 204.618 657.59 204.61C661.876 204.61 666.156 204.275 670.39 203.61C679.53 202.078 688.501 199.67 697.18 196.42C701.534 194.857 705.772 192.986 709.86 190.82C714.607 188.451 718.775 185.068 722.07 180.91C725.85 175.91 727.9 170.91 728.16 166.05C728.544 161.249 727.152 156.474 724.25 152.63C721.363 148.964 717.373 146.324 712.87 145.1C710.53 144.423 708.106 144.086 705.67 144.1C702.917 144.123 700.176 144.482 697.51 145.17L696.77 145.36L696.08 145.7L694.43 146.52L694.25 146.62L694.07 146.72C689.37 149.411 684.504 151.799 679.5 153.87C674.837 155.851 669.936 157.216 664.92 157.93C663.216 158.159 661.499 158.276 659.78 158.28C658.258 158.281 656.738 158.18 655.23 157.98L656.51 157.67C662.847 156.158 669.097 154.299 675.23 152.1C681.317 149.887 687.253 147.278 693 144.29C699.218 141.053 704.899 136.873 709.84 131.9C715.281 126.674 719.047 119.95 720.66 112.58C722.064 105.859 721.897 98.9051 720.17 92.26C718.393 85.5035 715.172 79.2125 710.73 73.82C706.258 68.2759 700.576 63.829 694.12 60.82C687.063 57.5952 679.378 55.9795 671.62 56.09V56ZM647.09 110.78L652.01 108.05C655.694 106.169 659.637 104.848 663.71 104.13C665.264 103.815 666.845 103.654 668.43 103.65C670.574 103.65 672.707 103.963 674.76 104.58C674.77 104.736 674.77 104.893 674.76 105.05C674.154 105.679 673.456 106.212 672.69 106.63C668.843 108.849 664.778 110.669 660.56 112.06C655.43 113.83 649.89 115.54 644.09 117.15L639.71 118.37C639.93 117.9 640.15 117.45 640.38 117.04C641.982 114.381 644.287 112.214 647.04 110.78H647.09Z"
    fill="black" />
  <path
    d="M729.22 171C728.118 167.966 727.635 164.743 727.8 161.52C727.952 158.544 728.776 155.642 730.21 153.03C731.613 150.493 733.731 148.424 736.3 147.08C739.278 145.609 742.63 145.069 745.92 145.53C747.904 145.692 749.832 146.268 751.58 147.22C753.268 148.161 754.836 149.303 756.25 150.62C757.663 151.953 759.08 153.37 760.5 154.87C764.5 159.151 769.509 162.363 775.07 164.21C778.767 165.367 782.553 166.217 786.39 166.75C788.684 166.862 790.942 166.153 792.76 164.75C794.292 163.527 795.421 161.872 796 160C796.567 158.025 796.71 155.953 796.42 153.92C796.243 152.003 795.506 150.18 794.3 148.68C791.094 145.476 787.001 143.306 782.55 142.45C778.193 141.579 773.892 140.447 769.67 139.06C763.91 137.128 758.323 134.713 752.97 131.84C747.602 129.016 743.029 124.89 739.67 119.84C736.192 114.837 734.004 109.052 733.3 103C732.63 97.1595 733.112 91.2444 734.72 85.5898C736.329 79.9104 739.075 74.6168 742.79 70.0298C746.537 65.3311 751.146 61.3906 756.37 58.4198C760.385 56.1431 764.797 54.6532 769.37 54.0298C774.104 53.3743 778.896 53.2335 783.66 53.6098C788.509 53.9924 793.303 54.8943 797.96 56.2998C802.378 57.6097 806.718 59.1689 810.96 60.9698C815.176 62.7786 818.733 65.8404 821.15 69.7398C823.312 73.1719 824.44 77.1538 824.4 81.2098C824.342 84.9217 822.918 88.482 820.4 91.2098C817.853 94.0431 814.127 95.4598 809.22 95.4598C806.406 95.4997 803.613 94.9691 801.01 93.8998C798.563 92.8665 796.017 91.8665 793.37 90.8998C789.83 89.5488 786.134 88.6451 782.37 88.2098C778.41 87.7431 775.203 87.9798 772.75 88.9198C771.743 89.2785 770.858 89.9167 770.2 90.7598C769.218 91.86 768.494 93.1649 768.08 94.5798C767.606 96.0419 767.507 97.5993 767.79 99.1098C767.976 99.9115 768.343 100.66 768.863 101.298C769.383 101.936 770.042 102.446 770.79 102.79C775.353 105.254 780.198 107.155 785.22 108.45C790.32 109.783 795.32 111.293 800.22 112.98C805.025 114.632 809.63 116.815 813.95 119.49C818.376 122.318 822.024 126.21 824.56 130.81C828.609 137.626 830.805 145.383 830.93 153.31C831.077 160.885 829.479 168.392 826.26 175.25C823.005 182.099 818.152 188.067 812.11 192.65C805.79 197.497 798.245 200.488 790.32 201.29C784.546 201.856 778.72 201.519 773.05 200.29C767.339 199.042 761.817 197.045 756.63 194.35C751.389 191.636 746.457 188.364 741.92 184.59C737.59 181.011 733.609 177.03 730.03 172.7L729.22 171Z"
    fill="#FFADDE" />
  <path
    d="M778.48 53.3799C780.21 53.3799 781.96 53.4399 783.7 53.5799C788.549 53.9625 793.343 54.8643 798 56.2699C802.418 57.5798 806.758 59.1389 811 60.9399C815.216 62.7487 818.773 65.8104 821.19 69.7099C823.352 73.142 824.48 77.1238 824.44 81.1799C824.382 84.8918 822.958 88.452 820.44 91.1799C817.893 94.0132 814.167 95.4299 809.26 95.4299C806.446 95.4698 803.653 94.9391 801.05 93.8699C798.603 92.8365 796.057 91.8365 793.41 90.8699C789.871 89.5142 786.175 88.6104 782.41 88.1799C781.179 88.0337 779.94 87.9569 778.7 87.9499C776.689 87.8988 774.686 88.2174 772.79 88.8899C771.783 89.2486 770.898 89.8868 770.24 90.7299C769.258 91.83 768.534 93.1349 768.12 94.5499C767.646 96.0119 767.547 97.5693 767.83 99.0799C768.016 99.8816 768.383 100.63 768.903 101.268C769.423 101.906 770.082 102.416 770.83 102.76C775.393 105.224 780.238 107.125 785.26 108.42C790.36 109.753 795.36 111.263 800.26 112.95C805.065 114.602 809.67 116.785 813.99 119.46C818.416 122.288 822.064 126.18 824.6 130.78C828.649 137.596 830.844 145.353 830.97 153.28C831.117 160.855 829.52 168.362 826.3 175.22C823.045 182.07 818.192 188.037 812.15 192.62C805.83 197.467 798.285 200.459 790.36 201.26C788.51 201.43 786.67 201.52 784.85 201.52C780.896 201.521 776.954 201.099 773.09 200.26C767.379 199.013 761.858 197.015 756.67 194.32C751.429 191.606 746.497 188.334 741.96 184.56C737.63 180.981 733.649 177 730.07 172.67L729.22 170.97C728.114 167.938 727.631 164.713 727.8 161.49C727.952 158.514 728.776 155.612 730.21 153C731.613 150.463 733.731 148.394 736.3 147.05C738.561 145.896 741.073 145.322 743.61 145.38C744.381 145.381 745.153 145.421 745.92 145.5C747.904 145.662 749.832 146.238 751.58 147.19C753.268 148.132 754.836 149.273 756.25 150.59C757.663 151.923 759.08 153.34 760.5 154.84C764.5 159.121 769.509 162.333 775.07 164.18C778.767 165.337 782.553 166.187 786.39 166.72C788.684 166.832 790.942 166.123 792.76 164.72C794.287 163.505 795.416 161.861 796 160C796.567 158.025 796.71 155.954 796.42 153.92C796.243 152.003 795.506 150.18 794.3 148.68C791.094 145.476 787.001 143.306 782.55 142.45C778.193 141.579 773.892 140.447 769.67 139.06C763.91 137.128 758.323 134.713 752.97 131.84C747.602 129.016 743.029 124.89 739.67 119.84C736.192 114.837 734.004 109.052 733.3 103C732.63 97.1595 733.112 91.2444 734.72 85.5899C736.331 79.9113 739.077 74.6181 742.79 70.0299C746.537 65.3311 751.146 61.3906 756.37 58.4199C760.385 56.1432 764.797 54.6532 769.37 54.0299C772.375 53.6131 775.406 53.4059 778.44 53.4099L778.48 53.3799ZM778.44 46.4099C775.095 46.4111 771.754 46.6417 768.44 47.0999C762.981 47.8444 757.713 49.6228 752.92 52.3399C746.934 55.7543 741.648 60.2704 737.34 65.6499C733.051 70.9625 729.874 77.084 728 83.6499C726.158 90.1773 725.604 97.0009 726.37 103.74C727.191 110.924 729.774 117.794 733.89 123.74C737.889 129.737 743.324 134.639 749.7 138C755.398 141.062 761.346 143.635 767.48 145.69C771.967 147.165 776.539 148.371 781.17 149.3C784.138 149.848 786.887 151.236 789.09 153.3C789.314 153.761 789.452 154.259 789.5 154.77C789.665 155.828 789.6 156.909 789.31 157.94C789.138 158.508 788.787 159.006 788.31 159.36C787.859 159.615 787.348 159.743 786.83 159.73C783.561 159.245 780.334 158.506 777.18 157.52C774.285 156.579 771.577 155.137 769.18 153.26V153.26C767.93 152.321 766.768 151.27 765.71 150.12C764.18 148.5 762.65 146.97 761.13 145.55C759.314 143.848 757.299 142.37 755.13 141.15C752.538 139.725 749.677 138.857 746.73 138.6C745.73 138.5 744.73 138.45 743.73 138.45C739.996 138.386 736.306 139.263 733 141C729.246 142.976 726.152 146.007 724.1 149.72C722.157 153.247 721.039 157.169 720.83 161.19C720.6 165.346 721.212 169.506 722.63 173.42L722.77 173.83L722.97 174.22L723.82 175.92L724.17 176.62L724.66 177.22C728.516 181.879 732.809 186.159 737.48 190C742.413 194.106 747.778 197.664 753.48 200.61C759.211 203.587 765.31 205.793 771.62 207.17C775.973 208.116 780.415 208.592 784.87 208.59C786.87 208.59 788.99 208.49 791.05 208.29H791.17C800.36 207.36 809.111 203.898 816.45 198.29C823.367 193.009 828.921 186.152 832.65 178.29C836.318 170.474 838.144 161.922 837.99 153.29C837.848 144.158 835.329 135.221 830.68 127.36C827.556 121.768 823.088 117.042 817.68 113.61C812.918 110.655 807.839 108.243 802.54 106.42C797.54 104.67 792.26 103.1 787.01 101.73C782.752 100.635 778.634 99.0512 774.74 97.0099C774.755 96.9147 774.779 96.821 774.81 96.7299C774.925 96.2887 775.137 95.8787 775.43 95.5299L775.51 95.4399C776.549 95.1397 777.629 95.0047 778.71 95.0399C779.676 95.0449 780.641 95.105 781.6 95.2199C784.793 95.579 787.929 96.3417 790.93 97.4899H791.01H791.1C793.61 98.3899 796.1 99.3399 798.38 100.32C801.844 101.754 805.562 102.471 809.31 102.43C816.31 102.43 821.77 100.22 825.69 95.8699C829.331 91.8871 831.38 86.7054 831.45 81.3099C831.52 75.9279 830.045 70.6387 827.2 66.0699C824.06 60.9598 819.429 56.9355 813.93 54.5399H813.85H813.76C809.269 52.6373 804.675 50.9881 800 49.5999C794.87 48.0497 789.591 47.0441 784.25 46.5999C782.32 46.4499 780.38 46.3799 778.47 46.3799L778.44 46.4099Z"
    fill="black" />
</svg>